<svg xmlns="http://www.w3.org/2000/svg" viewBox="0 0 100 100"><defs><style>.cls-1{fill:#ade1f9;}.cls-2{fill:#fff;}.cls-3{fill:#32d4ca;}.cls-4{fill:#10bfa6;}.cls-5{fill:#03a2ff;}.cls-6{fill:#a00db5;}.cls-7{fill:#d00ff2;}</style></defs><title>online-or-in-person-learner-tab</title><g id="Layer_2" data-name="Layer 2"><circle class="cls-1" cx="50" cy="50" r="49.39"/><rect class="cls-2" x="17.48" y="24.87" width="67.03" height="55.45"/><rect class="cls-3" x="23.65" y="18.82" width="4.46" height="12.8"/><rect class="cls-4" x="23.65" y="18.82" width="1.69" height="12.8"/><rect class="cls-3" x="74.09" y="18.82" width="4.46" height="12.8"/><rect class="cls-4" x="76.85" y="18.82" width="1.69" height="12.8"/><rect class="cls-1" x="23.65" y="35.9" width="9.93" height="9.93"/><rect class="cls-1" x="38.48" y="35.9" width="9.93" height="9.93"/><rect class="cls-1" x="53.3" y="35.9" width="9.93" height="9.93"/><rect class="cls-1" x="68.12" y="35.9" width="9.93" height="9.93"/><rect class="cls-1" x="23.65" y="50.11" width="9.93" height="9.93"/><rect class="cls-1" x="38.48" y="50.11" width="9.93" height="9.93"/><rect class="cls-1" x="53.3" y="50.11" width="9.93" height="9.93"/><rect class="cls-1" x="68.12" y="50.11" width="9.93" height="9.93"/><rect class="cls-1" x="23.65" y="64.55" width="9.93" height="9.93"/><rect class="cls-1" x="38.48" y="64.55" width="9.93" height="9.93"/><rect class="cls-1" x="53.3" y="64.55" width="9.93" height="9.93"/><rect class="cls-1" x="68.12" y="64.55" width="9.93" height="9.93"/><circle class="cls-5" cx="43.38" cy="40.92" r="7.91"/><path class="cls-2" d="M42,44.05h0a.44.44,0,0,1-.35-.18l-2.41-2.92.77-.63L42,42.82l5.25-4.89.68.73L42.3,43.91A.48.48,0,0,1,42,44.05Z"/><circle class="cls-5" cx="73.53" cy="70.07" r="7.91"/><path class="cls-2" d="M72.11,73.2h0a.49.49,0,0,1-.35-.19L69.32,70.1l.77-.64L72.16,72l5.25-4.89.69.73-5.65,5.25A.48.48,0,0,1,72.11,73.2Z"/><path class="cls-6" d="M45.42,85.11S48.64,67,34.54,55.75c0,0-8.66-7.45-14.9-5.23,0,0,10.27,3,8.66,22.12a10.33,10.33,0,0,0-7.86-10.26s3.43,5.84-1.61,12.68a33.23,33.23,0,0,0-4.5,9.15,49.22,49.22,0,0,0,35.6,15.18c.51,0,1,0,1.51,0,1.38-2.5,5.45-12.09-4.21-24.49C47.23,74.86,47.83,81.9,45.42,85.11Z"/><path class="cls-7" d="M25.26,92.75a49.89,49.89,0,0,0,5.21,2.64,31.39,31.39,0,0,1,3.29-25.08S22.53,79.53,25.26,92.75Z"/></g></svg>